<svg xmlns="http://www.w3.org/2000/svg" viewBox="0 0 48 48" fill="none">
  <defs>
    <linearGradient id="medGrad" x1="0" y1="0" x2="48" y2="48" gradientUnits="userSpaceOnUse">
      <stop offset="0" stop-color="#10b981"/>
      <stop offset="0.55" stop-color="#14b8a6"/>
      <stop offset="1" stop-color="#06b6d4"/>
    </linearGradient>
    <linearGradient id="medBubble" x1="0" y1="0" x2="48" y2="48" gradientUnits="userSpaceOnUse">
      <stop offset="0" stop-color="#0ea5e9"/>
      <stop offset="1" stop-color="#6366f1"/>
    </linearGradient>
  </defs>
  <!-- Speech bubble (outer) -->
  <path d="M8 9 H40 A4 4 0 0 1 44 13 V30 A4 4 0 0 1 40 34 H22 L13 42 V34 H8 A4 4 0 0 1 4 30 V13 A4 4 0 0 1 8 9 Z"
        fill="url(#medBubble)" opacity="0.16"/>
  <path d="M8 9 H40 A4 4 0 0 1 44 13 V30 A4 4 0 0 1 40 34 H22 L13 42 V34 H8 A4 4 0 0 1 4 30 V13 A4 4 0 0 1 8 9 Z"
        stroke="url(#medBubble)" stroke-width="1.8" stroke-linejoin="round" fill="none"/>
  <!-- Medical cross (inner) -->
  <path d="M24 13 V31 M15 22 H33"
        stroke="url(#medGrad)" stroke-width="5.5" stroke-linecap="round"/>
  <!-- Cross accent dot -->
  <circle cx="24" cy="22" r="2.4" fill="#ffffff" opacity="0.9"/>
</svg>
